<svg width="633" height="505" viewBox="0 0 633 505" fill="none" xmlns="http://www.w3.org/2000/svg">
<path d="M314.6 209.6L285.6 192.9C287.1 185.1 288 177.2 288 169.1C288 160.8 287.1 152.8 285.6 144.1L314.6 128.2C318.893 125.72 321.045 120.505 319.483 115.8C312.2 93.0999 300.6 74.1099 285.7 57.2799C283.7 55.0299 280.9 53.8699 278 53.8699C276.139 53.8699 274.264 54.3479 272.58 55.3189L243 72.4099C231 62.1099 217.3 54.0699 202.1 48.7499V14.6499C202.1 9.70692 198.682 5.30192 193.842 4.28992C182.9 2.00192 171.6 0.669922 160 0.669922C148.39 0.669922 137.12 2.01192 126.19 4.30192C121.35 5.31792 117.942 9.71192 117.942 14.6519V48.7419C102.7 54.0699 88.96 62.1099 76.98 72.4099L47.39 55.3199C45.71 54.3499 43.83 53.8699 41.97 53.8699C39.077 53.8699 36.322 55.0389 34.318 57.2969C19.39 74.1199 7.758 93.0999 0.507998 115.8C-1.053 120.5 1.098 125.7 5.391 128.2L34.431 144.97C32.93 152.8 32 160.8 32 169.1C32 177.237 32.943 185.14 34.395 192.85L5.391 209.6C1.098 212.1 -1.053 217.3 0.507998 221.1C7.66789 242.687 19.1362 262.596 34.218 279.62C36.22 282.8 39.08 283.9 41.97 283.9C43.831 283.9 45.708 283.422 47.39 282.451L76.7 265.6C88.74 276.01 102.61 284.13 117.94 289.49V323.18C117.94 328.121 121.359 332.459 126.198 333.47C137.1 335.7 148.4 337.1 160 337.1C171.61 337.1 182.88 335.689 193.81 333.4C198.65 332.384 202.057 328.057 202.057 323.12V289.5C217.397 284.135 231.257 276.01 243.297 265.6L272.6 282.5C274.248 283.45 276.117 283.95 278.02 283.949C280.911 283.949 283.666 282.711 285.672 280.451C300.592 263.621 312.232 243.851 319.482 222.011C321.1 217.3 318.9 212.1 314.6 209.6ZM160 217.1C133.49 217.1 112 195.61 112 169.1C112 142.59 133.49 121.1 160 121.1C186.51 121.1 208 142.59 208 169.1C208 195.61 186.5 217.1 160 217.1ZM628.5 311.2C627.484 306.36 623.088 302.952 618.14 302.952H584.05C578.726 287.732 570.69 273.972 560.39 261.992L577.48 232.392C578.43 230.744 578.93 228.874 578.929 226.972C578.929 224.079 577.762 221.324 575.504 219.32C558.674 204.4 538.834 192.76 516.994 185.51C512.291 183.949 507.076 186.1 504.594 190.393L487.824 219.433C479.1 217.9 471.1 217 463.7 217C455.563 217 447.66 217.943 439.95 219.395L423.2 190.4C420.72 186.107 415.501 183.957 410.8 185.517C389.213 192.677 369.304 204.145 352.28 219.227C350.02 221.231 348.861 224.084 348.861 226.975C348.861 228.836 349.341 230.713 350.311 232.395L367.231 261.705C356.821 273.745 348.701 287.615 343.341 302.945H309.6C304.659 302.945 300.104 306.338 299.09 311.177C296.8 322.1 295.7 333.4 295.7 345C295.7 356.61 296.884 367.9 299.173 378.82C300.1 383.7 304.7 387.1 309.6 387.1H343.29C348.655 402.44 356.78 416.3 367.19 428.34L350.27 457.65C349.319 459.298 348.819 461.167 348.82 463.07C348.82 465.961 349.864 468.812 352.124 470.818C368.954 485.738 388.924 497.278 410.754 504.528C415.457 506.09 420.676 503.938 423.154 499.645L439.894 470.645C447.6 472.1 455.5 473 463.7 473C471.968 473 480 472.066 487.83 470.568L504.6 499.608C507.08 503.901 512.295 506.053 517 504.491C538.84 497.241 558.69 485.591 575.52 470.671C577.778 468.665 578.934 465.92 578.934 463.029C578.934 461.168 578.456 459.293 577.485 457.609L560.395 428.009C570.685 416.029 578.735 402.269 584.055 387.049H618.145C623.088 387.049 627.495 383.631 628.515 378.791C630.8 367.9 632.1 356.6 632.1 345C632.1 333.4 630.8 322.1 628.5 311.2ZM463.7 393C437.19 393 415.7 371.51 415.7 345C415.7 318.49 437.19 297 463.7 297C490.21 297 511.7 318.49 511.7 345C511.7 371.51 490.2 393 463.7 393Z" fill="#3366CC"/>
</svg>
